<svg xmlns="http://www.w3.org/2000/svg" viewBox="0 0 2072 1199.66" xmlns:v="https://vecta.io/nano"><g fill="#ff8541"><path d="M1678.7 536.44l123.6-18.52 3.67 30.54c0 5.94-.73 11.88 0 17.78l2.76 46.84a226.49 226.49 0 0 1 1.73 27.92l6.64-1v18.7h46.46a16.74 16.74 0 0 0-1.64-7.92 8.46 8.46 0 0 0-2.48-2.9c-1.61-1.16-3.35-1.09-5.28-1.06-6.67.1-13.4-.16-20 .1l-.12-.12v-8.26l4.11-1.23 10.78-111c.7-64.72-104.36-49.12-104.36-49.12V375.11l1.93-.86q2.64-1.2 5.25-2.46l7.79-3.82q4.82-2.42 9.54-5c3.53-1.91 7-3.87 10.49-5.91s7.16-4.32 10.65-6.62 6.78-4.62 10-7.12a99.47 99.47 0 0 0 8.61-7.41 41.53 41.53 0 0 0 5.07-5.62 13.57 13.57 0 0 0 2-5.77 17.67 17.67 0 0 0 0-5.85 13.23 13.23 0 0 0-3.64-7.12c-1.35-1.35-2.6-2.73-3.74-4.1h.07a1.26 1.26 0 0 0 .39-1.74l-4.38-6.58a1.28 1.28 0 0 0-1.77-.33l-.38.24c-1.08-1.74-1.66-2.85-1.66-2.85h0a5.59 5.59 0 0 0 1.23-5.93l-.19-.47h0l3.42-1 .3-.08q2.51-.62 5-1.05l.39-.08a87.14 87.14 0 0 1 4.88-.72l.51-.06c1.47-.16 2.92-.28 4.35-.37l1-.06q2.07-.11 4.08-.12h.61c.75 0 1.46 0 2.19.06 1.05 0 2.1.06 3.11.12s2 .14 2.93.23 2 .22 3 .35l1.35.17c1 .15 2 .32 2.94.49l1.17.21c1 .18 1.87.39 2.78.59l1 .23c.88.21 1.7.44 2.52.66l1 .27c.75.22 1.45.44 2.15.67h.1l1.36.45 1.26.45h.09l1.24.47.9.37.39.16.91.39.16.08c.59.27 1.15.53 1.63.78h0c-1.68-1.77-4.31-6.27-7.42-12.55h0c-3.2-6.48-6.9-14.85-10.58-24.11-4.31-10.85-7.75-20.81-9.84-28.17q-.35-1.18-.63-2.28l-.22-.84-.23-.92c-.07-.3-.16-.63-.22-.93s-.13-.54-.18-.8-.13-.59-.19-.87l-.14-.7c-.05-.23-.1-.55-.14-.8l-.09-.57c0-.28-.07-.53-.1-.78s0-.28 0-.41v-1c-.19.52-.41 1.1-.66 1.71a2.44 2.44 0 0 0-.1.24c-.11.27-.25.56-.37.84l-.52 1.17c-.19.41-.41.84-.62 1.27l-.56 1.11-.76 1.41-.71 1.28c-.25.43-.32.57-.5.86-.46.78-1 1.59-1.48 2.41l-.33.51-.85 1.26-1.48 2.14c-.48.73-1.23 1.68-1.89 2.53l-.29.37c-.78 1-1.61 2-2.48 3l-.3.35c-.87 1-1.79 2-2.75 3l-.18.19c-1 1.05-2 2.1-3.15 3.13l-.3.29q-1.68 1.57-3.51 3.12l-.08.07q-1.82 1.53-3.8 3l-.3.23c-1.33 1-2.7 1.95-4.13 2.88l-.24.16c-1.42.92-2.89 1.82-4.41 2.68l-.25.14c-1.55.88-3.15 1.71-4.8 2.51l-.37.17c-1.69.81-3.43 1.58-5.23 2.29l-12.48 5h0a16.25 16.25 0 0 0-5.32 3.85c-.12.13-.24.26-.35.4h0a15.44 15.44 0 0 0-1.94 2.83h0l-.11.24a15.26 15.26 0 0 0-.69 1.55v.06a14.73 14.73 0 0 0-.75 2.77h0l-.06.31h0c-.05.32-.08.65-.11 1h0v.31h0v1h0v.25c0 .36 0 .72.07 1.08h0v.22c.05.37.1.74.17 1.11h0 0a14.23 14.23 0 0 0 3.24 6.65h0c.13.15.26.3.4.44h0c.13.15.27.3.41.44h0c.15.15.3.28.46.42s.6.52.91.76.33.26.51.38h0c.16.12.33.23.49.33h0l.34.21c.37.22.75.43 1.13.62.16.08.32.17.49.24h0a15.48 15.48 0 0 0 .94.39l.57.21h0c.21.07.42.12.64.18s.43.13.65.18h0l.42.09h0l.26.05a16 16 0 0 0 3.8.28h0c.3 0 .61-.05.91-.08a3.75 3.75 0 0 0 .47 0h0l.68-.11.49 1.22a5.62 5.62 0 0 0 5.55 3.47l3.87 12.82c0 2.17-1.24 4.27-2.44 6a48.58 48.58 0 0 1-6.28 7.09c-2.64 2.54-9.71 7-12.56 9.33s-6.29 4.29-9.15 6.39l-5.52 3.95a16.06 16.06 0 0 1-5.19 2.39 17.14 17.14 0 0 1-6.86.45 22.55 22.55 0 0 1-6.77-2.23 20.4 20.4 0 0 1-3.48-2.08h0c-10.77-13.71-21.12-11.76-21.12-11.76a39 39 0 0 0-4.41.86 27.88 27.88 0 0 0-9.26 5.12 48.34 48.34 0 0 0-7.66 8l-.12.15c-2.82 3.66-14.87 66-18.5 68.67z"/><circle cx="1719.46" cy="288.69" r="31.57" transform="matrix(.160226 -.98708 .98708 .160226 1159.08 1939.7)"/><path d="M1841.64 257.2c8.31 20.9 16.8 37.15 19 36.29s5.06-18.52-3.25-39.42-24.66-37.16-26.83-36.29c-.49.22 2.77 18.51 11.08 39.42z"/><path d="M1854.63 253.37h0l-.07-.17zm-13.74-31.84c.91-1.24 1.73-2.53 2.53-3.84 2.16-3.53 4-7.21 5.87-10.91l-4.37.56a94.23 94.23 0 0 0 4.3-11.47c-1.14 1.62-2.19 3.32-3.19 5-1.77 3-3.37 6.12-5 9.23l4.26-.47-.47 1.05a75.72 75.72 0 0 0-3.93 10.85zm15.97 13.21l3.57-3.08c3-2.78 5.78-5.79 8.53-8.82l-4.35-.65a94.54 94.54 0 0 0 7.25-9.88c-1.54 1.26-3 2.61-4.44 4-2.52 2.43-4.91 5-7.29 7.53l4.23.7-.74.89a75.34 75.34 0 0 0-6.76 9.31zm24.62 7.93a91.61 91.61 0 0 0 11.29-4.74c-2 .28-3.92.69-5.85 1.13-3.41.79-6.76 1.75-10.12 2.71l3.26 2.78q-2.47.87-4.92 1.84a65.23 65.23 0 0 0-6.76 3.08c1.56-.19 3.11-.49 4.64-.82 4-.84 7.94-2 11.86-3.18l-3.4-2.8zm2.32 29.85l-1-4.3a93.12 93.12 0 0 0 11.82 3.25l-5.31-2.73c-3.16-1.49-6.39-2.8-9.63-4.12l.85 4.2c-1.66-.56-3.32-1.1-5-1.59a66.58 66.58 0 0 0-7.22-1.75c1.34.81 2.74 1.53 4.15 2.23 3.73 1.81 7.54 3.29 11.34 4.81zm10.37 22.56c-1.66-1.09-3.39-2.08-5.14-3-3.07-1.67-6.22-3.17-9.38-4.67l.61 4.24q-2.43-1-4.9-1.87a65.47 65.47 0 0 0-7.11-2.17c1.3.89 2.65 1.69 4 2.47 3.56 2 7.27 3.75 11 5.45l-.7-4.34a93.21 93.21 0 0 0 11.62 3.89zm-1700.33 576q-16.51 0-16.51-16.5V406.25q0-16.5 16.51-16.5h52.25q16.52 0 16.51 16.5v448.33q0 16.5-16.51 16.5zm2.75-524.66c-11 0-16.51-5.5-16.51-17.19V301c0-11.69 5.5-17.19 16.51-17.19h46.76c11 0 16.5 5.5 16.5 17.19v28.19c0 11.69-5.5 17.19-16.5 17.19zm230.34 158.84h85.27c11 0 16.5 5.51 16.5 17.2v31.63c0 11.69-5.5 17.19-16.5 17.19h-85.27v282.61c0 11.69-5.5 17.19-16.5 17.19h-46.76c-11 0-16.5-5.5-16.5-17.19V571.28H312.1c-11 0-16.5-5.5-16.5-17.19v-31.63c0-11.69 5.5-17.2 16.5-17.2h35.07c0-82.51 39.2-122.39 123.77-122.39a367.79 367.79 0 0 1 48.14 3.44c11 2.06 15.81 8.25 13.75 19.94l-4.13 31.63c-2.06 10.31-8.25 15.13-18.56 13.75a125.42 125.42 0 0 0-26.14-2.75c-40.56 0-56.38 15.12-57.07 56.38zM675.84 878v13.75h.69c35.07 0 53 17.19 53 51.57 0 40.57-26.82 60.51-79.77 60.51a301.05 301.05 0 0 1-35.07-2.06c-10.31-1.38-14.44-7.57-12.37-17.88l2.68-17.23q2.06-15.46 16.5-12.38a154.62 154.62 0 0 0 24.07 2.07c24.06 0 30.94-4.82 30.94-17.88S670.34 922 649 922h-6.18c-10.32 0-15.13-5.5-13.76-16.5l3.44-27.5a441 441 0 0 1-83.89-11.69q-15.46-4.12-12.38-20.63l6.19-37.82c2.07-11.69 8.25-15.82 19.94-12.38a306.56 306.56 0 0 0 91.46 13.76c57.07 0 83.2-12.38 83.2-46.08 0-27.5-18.56-37.13-65.32-47.44l-39.2-8.94c-66-14.44-95.58-48.13-95.58-106.58q0-111.4 152.65-111.4a473.9 473.9 0 0 1 95.58 9.63c10.32 2.06 14.44 8.94 13.07 19.94l-6.19 37.13c-2.06 11.69-8.25 15.82-19.94 12.38-25.44-7.57-52.26-11-79.77-11-52.94 0-76.32 12.37-76.32 42.63 0 24.75 17.19 35.07 64.64 46.07l39.88 9.63c68.07 16.5 97.64 49.51 97.64 107.27q.02 108.26-142.32 115.52zm467.56-252.4v228.29c0 11.69-5.5 17.19-16.5 17.19h-31.63c-11 0-16.5-5.5-16.5-17.19v-13.75c0-11.69 1.37-21.32 4.12-29.57l2.07-8.25h-8.26l-4.81 11c-19.25 43.32-57.76 64.68-116.21 64.68-74.95 0-116.89-40.57-116.89-112.77 0-77.71 44.69-116.21 134.77-116.21h90.77v-15.86c0-55-22.69-75.64-83.21-75.64-28.87 0-56.38 4.82-82.51 15.13-11.69 4.13-18.56.69-21.32-10.31l-8.94-37.13c-2.06-11 1.38-17.88 11.7-21.32a379.92 379.92 0 0 1 110-15.82c107.28 0 153.35 41.26 153.35 137.53zm-79.07 99.7v-17.19h-77.7c-51.58 0-69.45 13.07-69.45 50.89s17.87 52.26 62.57 52.26c51.57 0 84.58-34.38 84.58-85.96z"/></g><path d="M1808.3 854.58c1.37 11.69-2.75 17.88-13.07 19.94q-19.59 4.13-45.38 4.13c-84.58 0-122.4-38.51-122.4-121.72V571.28h-34.38c-11.69 0-17.19-5.5-17.19-17.19v-31.63c0-11.69 5.5-17.2 17.19-17.2h35.76V453c0-10.32 4.81-16.51 14.44-19.26l45.38-12.37c13.07-2.07 18.57 1.37 18.57 15.12v68.76h81.14c11.68 0 17.19 5.51 17.19 17.2v31.63c0 11.69-5.51 17.19-17.19 17.19h-81.14v180.16c0 43.32 15.12 56.39 57.07 56.39a92 92 0 0 0 19.25-2.06c11.69-2.07 17.88 2.75 19.26 13.06zm-247.92-208.19v56.55q0 16.35-16.35 16.35h-205.77c2 62 27.93 85.17 93.34 85.17 27.94 0 54.51-4.77 78.36-15 10.9-4.77 17.71-1.36 21.12 9.54l10.22 38.84c3.41 11.58 0 18.4-10.22 21.8-32 10.22-67.45 15.67-107 15.67-109 0-164.89-54.5-164.89-160.79v-68.13c0-100.84 54.51-157.39 151.94-157.39 95.42 0 149.25 56.55 149.25 157.39zm-77.68 4.09V631.4c0-48.38-23.16-72.9-70.17-72.9-52.47 0-74.27 24.52-74.27 87.89v4.09z" fill="#00d9da"/><g fill="#ff8541"><path d="M1825.5 826.93c1.22.24 1.71 1.06 1.3 2.44a21.52 21.52 0 0 0-1.06 6.77c0 7.58 3.67 11.33 11.09 11.33h7.09c7.42 0 11.08-3.75 11.08-11.17a22.36 22.36 0 0 0-1.22-7.17c-.49-1.38-.08-2.2 1.22-2.44l4.49-1.06a1.88 1.88 0 0 1 2.44 1.3 33.09 33.09 0 0 1 1.63 10c0 13-6.76 20-19.07 20h-8.15c-12.39 0-19-7-19-20.14a35.13 35.13 0 0 1 1.3-9.53c.33-1.23 1.14-1.63 2.45-1.39zm19.15-6.69h-8.47c-12.31 0-18.83-6.76-18.83-19.32s6.52-19.31 18.83-19.31h8.47c12.31 0 18.83 6.68 18.83 19.31s-6.48 19.32-18.83 19.32zm-.16-29.18h-8.23c-7.09 0-10.68 3.26-10.68 9.86s3.59 9.87 10.68 9.87h8.23c7.09 0 10.68-3.27 10.68-9.87s-3.59-9.86-10.68-9.86zm-10.02-83.79h26.16c1.39 0 2 .65 2 2v5.54a1.78 1.78 0 0 1-2 2h-24.37c-6.93 0-10.43 2.85-10.43 8.56s4.89 9.54 11.82 9.54h23c1.39 0 2 .65 2 2v5.54c0 1.31-.65 2-2 2h-24.37c-6.93 0-10.43 2.85-10.43 8.64 0 5.62 4.89 9.45 11.82 9.45h23a1.78 1.78 0 0 1 2 2V770a1.78 1.78 0 0 1-2 2h-40.51c-1.3 0-1.95-.65-1.95-2v-5c0-1.38.65-2 1.95-2h1.06a15.41 15.41 0 0 1 4.08.49l1 .25v-1l-1.3-.49c-4.65-1.87-7.58-6.36-7.58-12.31 0-7.09 3-11.65 9-13.77a14.32 14.32 0 0 1-9-13.86c-.07-9.83 5.88-15.04 17.05-15.04z"/><circle cx="1854.28" cy="870.26" r="8.39"/></g></svg>